<svg xmlns="http://www.w3.org/2000/svg" xmlns:xlink="http://www.w3.org/1999/xlink" width="500" zoomAndPan="magnify" viewBox="0 0 375 374.999991" height="500" preserveAspectRatio="xMidYMid meet" version="1.0"><defs><filter x="0%" y="0%" width="100%" height="100%" id="eefd993575"><feColorMatrix values="0 0 0 0 1 0 0 0 0 1 0 0 0 0 1 0 0 0 1 0" color-interpolation-filters="sRGB"/></filter><g/><mask id="a2f9f13003"><g filter="url(#eefd993575)"><rect x="-37.5" width="450" fill="#000000" y="-37.499999" height="449.999989" fill-opacity="0.75"/></g></mask><clipPath id="6eac25bd4d"><path d="M 0.75 0.867188 L 235 0.867188 L 235 224.132812 L 0.75 224.132812 Z M 0.75 0.867188 " clip-rule="nonzero"/></clipPath><clipPath id="a65e35ac0e"><path d="M 117.875 0.867188 L 145.523438 86.148438 L 235 86.148438 L 162.613281 138.851562 L 190.261719 224.132812 L 117.875 171.429688 L 45.488281 224.132812 L 73.136719 138.851562 L 0.75 86.148438 L 90.226562 86.148438 Z M 117.875 0.867188 " clip-rule="nonzero"/></clipPath><clipPath id="591263ce93"><rect x="0" width="235" y="0" height="225"/></clipPath><mask id="a795150425"><g filter="url(#eefd993575)"><rect x="-37.5" width="450" fill="#000000" y="-37.499999" height="449.999989" fill-opacity="0.75"/></g></mask><clipPath id="b41413ef3b"><rect x="0" width="178" y="0" height="313"/></clipPath></defs><rect x="-37.5" width="450" fill="#ffffff" y="-37.499999" height="449.999989" fill-opacity="1"/><rect x="-37.5" width="450" fill="#009485" y="-37.499999" height="449.999989" fill-opacity="1"/><g mask="url(#a2f9f13003)"><g transform="matrix(1, 0, 0, 1, 140, 75)"><g clip-path="url(#591263ce93)"><g clip-path="url(#6eac25bd4d)"><g clip-path="url(#a65e35ac0e)"><path fill="#ffffff" d="M 0.75 0.867188 L 235.359375 0.867188 L 235.359375 224.132812 L 0.75 224.132812 Z M 0.75 0.867188 " fill-opacity="1" fill-rule="nonzero"/></g></g></g></g></g><g mask="url(#a795150425)"><g transform="matrix(1, 0, 0, 1, 0, 62)"><g clip-path="url(#b41413ef3b)"><g fill="#ffffff" fill-opacity="1"><g transform="translate(-25.549936, 236.206802)"><g><path d="M 166.625 -185.171875 L 166.625 -221 L 44.640625 -221 L 44.640625 -108.453125 C 45.90625 -107.828125 54.390625 -99.96875 54.390625 -99.96875 C 54.390625 -99.96875 70.421875 -103.75 89.28125 -103.75 C 118.515625 -103.75 137.375 -90.21875 137.375 -67.59375 C 137.375 -48.09375 122.296875 -30.8125 94.9375 -30.8125 C 60.984375 -30.8125 42.75 -47.15625 42.75 -47.15625 L 28.921875 -15.09375 C 28.921875 -15.09375 50.921875 3.765625 96.203125 3.765625 C 150.90625 3.765625 179.1875 -26.71875 179.1875 -66.328125 C 179.1875 -117.265625 143.984375 -134.234375 98.71875 -134.234375 C 94.3125 -134.234375 90.21875 -133.609375 85.828125 -133.296875 L 85.828125 -185.171875 Z M 50.609375 -26.71875 C 50.609375 -26.71875 65.703125 -15.09375 98.71875 -15.09375 C 136.4375 -15.09375 156.5625 -38.046875 156.5625 -66.328125 C 156.5625 -103.109375 129.84375 -116.3125 98.078125 -116.3125 C 85.828125 -116.3125 63.1875 -113.171875 63.1875 -113.171875 L 63.1875 -205.59375 L 148.703125 -205.59375 L 148.703125 -199.3125 L 69.484375 -199.3125 L 69.484375 -119.78125 C 69.484375 -119.78125 89.59375 -122.609375 98.078125 -122.609375 C 133.296875 -122.609375 162.84375 -107.515625 162.84375 -66.328125 C 162.84375 -34.265625 140.21875 -8.796875 98.71875 -8.796875 C 63.8125 -8.796875 47.78125 -20.125 47.78125 -20.125 Z M 50.609375 -26.71875 "/></g></g></g></g></g></g></svg>