<svg xmlns="http://www.w3.org/2000/svg" xmlns:xlink="http://www.w3.org/1999/xlink" width="500" zoomAndPan="magnify" viewBox="0 0 375 374.999991" height="500" preserveAspectRatio="xMidYMid meet" version="1.0"><defs><filter x="0%" y="0%" width="100%" height="100%" id="6e30b0fa74"><feColorMatrix values="0 0 0 0 1 0 0 0 0 1 0 0 0 0 1 0 0 0 1 0" color-interpolation-filters="sRGB"/></filter><g/><linearGradient x1="0" gradientTransform="matrix(0.75, 0, 0, 0.75, 0.0000045, 0)" y1="0" x2="499.999979" gradientUnits="userSpaceOnUse" y2="499.999979" id="728eb2852a"><stop stop-opacity="1" stop-color="rgb(29.798889%, 72.198486%, 68.598938%)" offset="0"/><stop stop-opacity="1" stop-color="rgb(29.798889%, 72.198486%, 68.598938%)" offset="0.25"/><stop stop-opacity="1" stop-color="rgb(29.798889%, 72.198486%, 68.598938%)" offset="0.3125"/><stop stop-opacity="1" stop-color="rgb(29.798889%, 72.198486%, 68.598938%)" offset="0.328125"/><stop stop-opacity="1" stop-color="rgb(29.667664%, 72.135925%, 68.527222%)" offset="0.335937"/><stop stop-opacity="1" stop-color="rgb(29.188538%, 71.908569%, 68.263245%)" offset="0.339844"/><stop stop-opacity="1" stop-color="rgb(28.840637%, 71.742249%, 68.070984%)" offset="0.34375"/><stop stop-opacity="1" stop-color="rgb(28.491211%, 71.575928%, 67.878723%)" offset="0.347656"/><stop stop-opacity="1" stop-color="rgb(28.143311%, 71.409607%, 67.687988%)" offset="0.351562"/><stop stop-opacity="1" stop-color="rgb(27.793884%, 71.243286%, 67.495728%)" offset="0.355469"/><stop stop-opacity="1" stop-color="rgb(27.445984%, 71.078491%, 67.303467%)" offset="0.359375"/><stop stop-opacity="1" stop-color="rgb(27.096558%, 70.91217%, 67.111206%)" offset="0.363281"/><stop stop-opacity="1" stop-color="rgb(26.748657%, 70.74585%, 66.920471%)" offset="0.367187"/><stop stop-opacity="1" stop-color="rgb(26.399231%, 70.579529%, 66.72821%)" offset="0.371094"/><stop stop-opacity="1" stop-color="rgb(26.051331%, 70.413208%, 66.537476%)" offset="0.375"/><stop stop-opacity="1" stop-color="rgb(25.70343%, 70.246887%, 66.345215%)" offset="0.378906"/><stop stop-opacity="1" stop-color="rgb(25.35553%, 70.082092%, 66.152954%)" offset="0.382812"/><stop stop-opacity="1" stop-color="rgb(25.006104%, 69.915771%, 65.960693%)" offset="0.386719"/><stop stop-opacity="1" stop-color="rgb(24.658203%, 69.749451%, 65.769958%)" offset="0.390625"/><stop stop-opacity="1" stop-color="rgb(24.308777%, 69.58313%, 65.577698%)" offset="0.394531"/><stop stop-opacity="1" stop-color="rgb(23.960876%, 69.416809%, 65.385437%)" offset="0.398438"/><stop stop-opacity="1" stop-color="rgb(23.61145%, 69.250488%, 65.193176%)" offset="0.402344"/><stop stop-opacity="1" stop-color="rgb(23.26355%, 69.085693%, 65.002441%)" offset="0.40625"/><stop stop-opacity="1" stop-color="rgb(22.914124%, 68.919373%, 64.810181%)" offset="0.410156"/><stop stop-opacity="1" stop-color="rgb(22.566223%, 68.753052%, 64.619446%)" offset="0.414062"/><stop stop-opacity="1" stop-color="rgb(22.218323%, 68.586731%, 64.427185%)" offset="0.417969"/><stop stop-opacity="1" stop-color="rgb(21.870422%, 68.42041%, 64.234924%)" offset="0.421875"/><stop stop-opacity="1" stop-color="rgb(21.520996%, 68.254089%, 64.042664%)" offset="0.425781"/><stop stop-opacity="1" stop-color="rgb(21.173096%, 68.089294%, 63.851929%)" offset="0.429688"/><stop stop-opacity="1" stop-color="rgb(20.823669%, 67.922974%, 63.659668%)" offset="0.433594"/><stop stop-opacity="1" stop-color="rgb(20.475769%, 67.756653%, 63.467407%)" offset="0.4375"/><stop stop-opacity="1" stop-color="rgb(20.126343%, 67.590332%, 63.275146%)" offset="0.441406"/><stop stop-opacity="1" stop-color="rgb(19.778442%, 67.424011%, 63.084412%)" offset="0.445312"/><stop stop-opacity="1" stop-color="rgb(19.429016%, 67.25769%, 62.892151%)" offset="0.449219"/><stop stop-opacity="1" stop-color="rgb(19.081116%, 67.09137%, 62.701416%)" offset="0.453125"/><stop stop-opacity="1" stop-color="rgb(18.731689%, 66.925049%, 62.509155%)" offset="0.457031"/><stop stop-opacity="1" stop-color="rgb(18.383789%, 66.760254%, 62.316895%)" offset="0.460938"/><stop stop-opacity="1" stop-color="rgb(18.035889%, 66.593933%, 62.124634%)" offset="0.464844"/><stop stop-opacity="1" stop-color="rgb(17.687988%, 66.427612%, 61.933899%)" offset="0.46875"/><stop stop-opacity="1" stop-color="rgb(17.338562%, 66.261292%, 61.741638%)" offset="0.472656"/><stop stop-opacity="1" stop-color="rgb(16.990662%, 66.094971%, 61.549377%)" offset="0.476562"/><stop stop-opacity="1" stop-color="rgb(16.641235%, 65.92865%, 61.357117%)" offset="0.480469"/><stop stop-opacity="1" stop-color="rgb(16.293335%, 65.763855%, 61.166382%)" offset="0.484375"/><stop stop-opacity="1" stop-color="rgb(15.943909%, 65.597534%, 60.974121%)" offset="0.488281"/><stop stop-opacity="1" stop-color="rgb(15.596008%, 65.431213%, 60.783386%)" offset="0.492188"/><stop stop-opacity="1" stop-color="rgb(15.246582%, 65.264893%, 60.591125%)" offset="0.496094"/><stop stop-opacity="1" stop-color="rgb(14.898682%, 65.098572%, 60.398865%)" offset="0.5"/><stop stop-opacity="1" stop-color="rgb(14.550781%, 64.932251%, 60.206604%)" offset="0.503906"/><stop stop-opacity="1" stop-color="rgb(14.202881%, 64.767456%, 60.015869%)" offset="0.507812"/><stop stop-opacity="1" stop-color="rgb(13.853455%, 64.601135%, 59.823608%)" offset="0.511719"/><stop stop-opacity="1" stop-color="rgb(13.505554%, 64.434814%, 59.631348%)" offset="0.515625"/><stop stop-opacity="1" stop-color="rgb(13.156128%, 64.268494%, 59.439087%)" offset="0.519531"/><stop stop-opacity="1" stop-color="rgb(12.808228%, 64.102173%, 59.248352%)" offset="0.523437"/><stop stop-opacity="1" stop-color="rgb(12.458801%, 63.935852%, 59.056091%)" offset="0.527344"/><stop stop-opacity="1" stop-color="rgb(12.110901%, 63.771057%, 58.865356%)" offset="0.53125"/><stop stop-opacity="1" stop-color="rgb(11.761475%, 63.604736%, 58.673096%)" offset="0.535156"/><stop stop-opacity="1" stop-color="rgb(11.413574%, 63.438416%, 58.480835%)" offset="0.539062"/><stop stop-opacity="1" stop-color="rgb(11.064148%, 63.272095%, 58.288574%)" offset="0.542969"/><stop stop-opacity="1" stop-color="rgb(10.716248%, 63.105774%, 58.097839%)" offset="0.546875"/><stop stop-opacity="1" stop-color="rgb(10.368347%, 62.939453%, 57.905579%)" offset="0.550781"/><stop stop-opacity="1" stop-color="rgb(10.020447%, 62.774658%, 57.713318%)" offset="0.554687"/><stop stop-opacity="1" stop-color="rgb(9.671021%, 62.608337%, 57.521057%)" offset="0.558594"/><stop stop-opacity="1" stop-color="rgb(9.32312%, 62.442017%, 57.330322%)" offset="0.5625"/><stop stop-opacity="1" stop-color="rgb(8.973694%, 62.275696%, 57.138062%)" offset="0.566406"/><stop stop-opacity="1" stop-color="rgb(8.625793%, 62.109375%, 56.947327%)" offset="0.570312"/><stop stop-opacity="1" stop-color="rgb(8.276367%, 61.943054%, 56.755066%)" offset="0.574219"/><stop stop-opacity="1" stop-color="rgb(7.928467%, 61.778259%, 56.562805%)" offset="0.578125"/><stop stop-opacity="1" stop-color="rgb(7.579041%, 61.611938%, 56.370544%)" offset="0.582031"/><stop stop-opacity="1" stop-color="rgb(7.23114%, 61.445618%, 56.17981%)" offset="0.585937"/><stop stop-opacity="1" stop-color="rgb(6.88324%, 61.279297%, 55.987549%)" offset="0.589844"/><stop stop-opacity="1" stop-color="rgb(6.535339%, 61.112976%, 55.795288%)" offset="0.59375"/><stop stop-opacity="1" stop-color="rgb(6.185913%, 60.946655%, 55.603027%)" offset="0.597656"/><stop stop-opacity="1" stop-color="rgb(5.838013%, 60.78186%, 55.412292%)" offset="0.601562"/><stop stop-opacity="1" stop-color="rgb(5.488586%, 60.61554%, 55.220032%)" offset="0.605469"/><stop stop-opacity="1" stop-color="rgb(5.140686%, 60.449219%, 55.029297%)" offset="0.609375"/><stop stop-opacity="1" stop-color="rgb(4.79126%, 60.282898%, 54.837036%)" offset="0.613281"/><stop stop-opacity="1" stop-color="rgb(4.443359%, 60.116577%, 54.644775%)" offset="0.617187"/><stop stop-opacity="1" stop-color="rgb(4.093933%, 59.950256%, 54.452515%)" offset="0.621094"/><stop stop-opacity="1" stop-color="rgb(3.746033%, 59.785461%, 54.26178%)" offset="0.625"/><stop stop-opacity="1" stop-color="rgb(3.398132%, 59.619141%, 54.069519%)" offset="0.628906"/><stop stop-opacity="1" stop-color="rgb(3.050232%, 59.45282%, 53.877258%)" offset="0.632812"/><stop stop-opacity="1" stop-color="rgb(2.700806%, 59.286499%, 53.684998%)" offset="0.636719"/><stop stop-opacity="1" stop-color="rgb(2.352905%, 59.120178%, 53.494263%)" offset="0.640625"/><stop stop-opacity="1" stop-color="rgb(2.003479%, 58.953857%, 53.302002%)" offset="0.644531"/><stop stop-opacity="1" stop-color="rgb(1.655579%, 58.789062%, 53.111267%)" offset="0.648437"/><stop stop-opacity="1" stop-color="rgb(1.306152%, 58.622742%, 52.919006%)" offset="0.652344"/><stop stop-opacity="1" stop-color="rgb(0.958252%, 58.456421%, 52.726746%)" offset="0.65625"/><stop stop-opacity="1" stop-color="rgb(0.608826%, 58.2901%, 52.534485%)" offset="0.660156"/><stop stop-opacity="1" stop-color="rgb(0.260925%, 58.123779%, 52.34375%)" offset="0.664062"/><stop stop-opacity="1" stop-color="rgb(0.1297%, 58.061218%, 52.270508%)" offset="0.671875"/><stop stop-opacity="1" stop-color="rgb(0%, 57.998657%, 52.198792%)" offset="0.6875"/><stop stop-opacity="1" stop-color="rgb(0%, 57.998657%, 52.198792%)" offset="0.75"/><stop stop-opacity="1" stop-color="rgb(0%, 57.998657%, 52.198792%)" offset="1"/></linearGradient><mask id="f408f9ccb4"><g filter="url(#6e30b0fa74)"><rect x="-37.5" width="450" fill="#000000" y="-37.499999" height="449.999989" fill-opacity="0.75"/></g></mask><clipPath id="96d0f7fd2f"><path d="M 0.570312 0.273438 L 177.769531 0.273438 L 177.769531 168.910156 L 0.570312 168.910156 Z M 0.570312 0.273438 " clip-rule="nonzero"/></clipPath><clipPath id="e36864fd40"><path d="M 89.035156 0.273438 L 109.917969 64.6875 L 177.5 64.6875 L 122.824219 104.496094 L 143.710938 168.910156 L 89.035156 129.101562 L 34.359375 168.910156 L 55.242188 104.496094 L 0.570312 64.6875 L 68.152344 64.6875 Z M 89.035156 0.273438 " clip-rule="nonzero"/></clipPath><clipPath id="790ebd6f93"><rect x="0" width="178" y="0" height="170"/></clipPath><mask id="b90040c50c"><g filter="url(#6e30b0fa74)"><rect x="-37.5" width="450" fill="#000000" y="-37.499999" height="449.999989" fill-opacity="0.75"/></g></mask><clipPath id="32ceb89294"><rect x="0" width="152" y="0" height="235"/></clipPath></defs><rect x="-37.5" width="450" fill="#ffffff" y="-37.499999" height="449.999989" fill-opacity="1"/><rect x="-37.5" fill="url(#728eb2852a)" width="450" y="-37.499999" height="449.999989"/><g mask="url(#f408f9ccb4)"><g transform="matrix(1, 0, 0, 1, 160, 105)"><g clip-path="url(#790ebd6f93)"><g clip-path="url(#96d0f7fd2f)"><g clip-path="url(#e36864fd40)"><path fill="#ffffff" d="M 0.570312 0.273438 L 177.769531 0.273438 L 177.769531 168.910156 L 0.570312 168.910156 Z M 0.570312 0.273438 " fill-opacity="1" fill-rule="nonzero"/></g></g></g></g></g><g mask="url(#b90040c50c)"><g transform="matrix(1, 0, 0, 1, 28, 95)"><g clip-path="url(#32ceb89294)"><g fill="#ffffff" fill-opacity="1"><g transform="translate(0.0824892, 176.461558)"><g><path d="M 124 -137.804688 L 124 -164.476562 L 33.222656 -164.476562 L 33.222656 -80.71875 C 34.160156 -80.25 40.476562 -74.398438 40.476562 -74.398438 C 40.476562 -74.398438 52.40625 -77.207031 66.445312 -77.207031 C 88.203125 -77.207031 102.242188 -67.148438 102.242188 -50.300781 C 102.242188 -35.796875 91.011719 -22.929688 70.65625 -22.929688 C 45.390625 -22.929688 31.820312 -35.09375 31.820312 -35.09375 L 21.523438 -11.230469 C 21.523438 -11.230469 37.902344 2.808594 71.59375 2.808594 C 112.300781 2.808594 133.359375 -19.886719 133.359375 -49.367188 C 133.359375 -87.269531 107.15625 -99.902344 73.464844 -99.902344 C 70.1875 -99.902344 67.148438 -99.433594 63.871094 -99.199219 L 63.871094 -137.804688 Z M 37.667969 -19.886719 C 37.667969 -19.886719 48.898438 -11.230469 73.464844 -11.230469 C 101.539062 -11.230469 116.511719 -28.308594 116.511719 -49.367188 C 116.511719 -76.738281 96.625 -86.566406 72.996094 -86.566406 C 63.871094 -86.566406 47.027344 -84.226562 47.027344 -84.226562 L 47.027344 -153.011719 L 110.664062 -153.011719 L 110.664062 -148.332031 L 51.707031 -148.332031 L 51.707031 -89.140625 C 51.707031 -89.140625 66.679688 -91.246094 72.996094 -91.246094 C 99.199219 -91.246094 121.191406 -80.015625 121.191406 -49.367188 C 121.191406 -25.5 104.347656 -6.550781 73.464844 -6.550781 C 47.496094 -6.550781 35.5625 -14.972656 35.5625 -14.972656 Z M 37.667969 -19.886719 "/></g></g></g></g></g></g><g fill="#000000" fill-opacity="1"><g transform="translate(20.654727, 228.068702)"><g><path d="M 26.078125 -12.53125 C 26.078125 -10.601562 25.84375 -8.847656 25.375 -7.265625 C 24.914062 -5.691406 24.195312 -4.332031 23.21875 -3.1875 C 22.238281 -2.050781 20.976562 -1.175781 19.4375 -0.5625 C 17.90625 0.0390625 16.066406 0.34375 13.921875 0.34375 C 11.828125 0.34375 10.015625 0.0390625 8.484375 -0.5625 C 6.953125 -1.175781 5.691406 -2.050781 4.703125 -3.1875 C 3.710938 -4.320312 2.976562 -5.679688 2.5 -7.265625 C 2.019531 -8.847656 1.78125 -10.613281 1.78125 -12.5625 C 1.78125 -15.15625 2.207031 -17.410156 3.0625 -19.328125 C 3.925781 -21.253906 5.257812 -22.742188 7.0625 -23.796875 C 8.863281 -24.847656 11.164062 -25.375 13.96875 -25.375 C 16.8125 -25.375 19.125 -24.84375 20.90625 -23.78125 C 22.6875 -22.726562 23.992188 -21.238281 24.828125 -19.3125 C 25.660156 -17.382812 26.078125 -15.125 26.078125 -12.53125 Z M 8.890625 -12.53125 C 8.890625 -11.019531 9.054688 -9.722656 9.390625 -8.640625 C 9.734375 -7.566406 10.273438 -6.738281 11.015625 -6.15625 C 11.765625 -5.570312 12.734375 -5.28125 13.921875 -5.28125 C 15.171875 -5.28125 16.160156 -5.570312 16.890625 -6.15625 C 17.628906 -6.738281 18.160156 -7.566406 18.484375 -8.640625 C 18.804688 -9.722656 18.96875 -11.019531 18.96875 -12.53125 C 18.96875 -14.78125 18.59375 -16.5625 17.84375 -17.875 C 17.09375 -19.1875 15.800781 -19.84375 13.96875 -19.84375 C 12.75 -19.84375 11.765625 -19.546875 11.015625 -18.953125 C 10.265625 -18.359375 9.722656 -17.515625 9.390625 -16.421875 C 9.054688 -15.328125 8.890625 -14.03125 8.890625 -12.53125 Z M 8.890625 -12.53125 "/></g></g></g><g fill="#000000" fill-opacity="1"><g transform="translate(47.664132, 228.068702)"><g><path d="M 11.34375 -24.984375 C 14.507812 -24.984375 16.878906 -24.289062 18.453125 -22.90625 C 20.035156 -21.53125 20.828125 -19.570312 20.828125 -17.03125 C 20.828125 -15.894531 20.664062 -14.800781 20.34375 -13.75 C 20.019531 -12.707031 19.488281 -11.773438 18.75 -10.953125 C 18.019531 -10.128906 17.046875 -9.476562 15.828125 -9 C 14.617188 -8.519531 13.125 -8.28125 11.34375 -8.28125 L 9.453125 -8.28125 L 9.453125 0 L 2.703125 0 L 2.703125 -24.984375 Z M 11.1875 -19.53125 L 9.453125 -19.53125 L 9.453125 -13.796875 L 10.78125 -13.796875 C 11.363281 -13.796875 11.90625 -13.894531 12.40625 -14.09375 C 12.90625 -14.289062 13.304688 -14.613281 13.609375 -15.0625 C 13.910156 -15.507812 14.0625 -16.113281 14.0625 -16.875 C 14.0625 -17.65625 13.828125 -18.289062 13.359375 -18.78125 C 12.890625 -19.28125 12.164062 -19.53125 11.1875 -19.53125 Z M 11.1875 -19.53125 "/></g></g></g><g fill="#000000" fill-opacity="1"><g transform="translate(68.89846, 228.068702)"><g><path d="M 17.53125 0 L 2.703125 0 L 2.703125 -24.984375 L 17.53125 -24.984375 L 17.53125 -19.5625 L 9.453125 -19.5625 L 9.453125 -15.640625 L 16.9375 -15.640625 L 16.9375 -10.21875 L 9.453125 -10.21875 L 9.453125 -5.5 L 17.53125 -5.5 Z M 17.53125 0 "/></g></g></g><g fill="#000000" fill-opacity="1"><g transform="translate(87.228163, 228.068702)"><g><path d="M 26.484375 0 L 17.640625 0 L 8.515625 -17.609375 L 8.359375 -17.609375 C 8.410156 -17.066406 8.457031 -16.421875 8.5 -15.671875 C 8.550781 -14.921875 8.59375 -14.15625 8.625 -13.375 C 8.664062 -12.59375 8.6875 -11.890625 8.6875 -11.265625 L 8.6875 0 L 2.703125 0 L 2.703125 -24.984375 L 11.515625 -24.984375 L 20.609375 -7.625 L 20.71875 -7.625 C 20.675781 -8.164062 20.640625 -8.796875 20.609375 -9.515625 C 20.578125 -10.242188 20.546875 -10.976562 20.515625 -11.71875 C 20.484375 -12.457031 20.46875 -13.113281 20.46875 -13.6875 L 20.46875 -24.984375 L 26.484375 -24.984375 Z M 26.484375 0 "/></g></g></g><g fill="#000000" fill-opacity="1"><g transform="translate(115.536107, 228.068702)"><g/></g></g><g fill="#000000" fill-opacity="1"><g transform="translate(123.750881, 228.068702)"><g><path d="M 18.03125 0 L 16.796875 -4.6875 L 8.6875 -4.6875 L 7.421875 0 L 0 0 L 8.15625 -25.09375 L 17.15625 -25.09375 L 25.40625 0 Z M 15.390625 -10.21875 L 14.328125 -14.328125 C 14.210938 -14.765625 14.046875 -15.394531 13.828125 -16.21875 C 13.609375 -17.050781 13.394531 -17.90625 13.1875 -18.78125 C 12.976562 -19.664062 12.816406 -20.394531 12.703125 -20.96875 C 12.597656 -20.394531 12.453125 -19.691406 12.265625 -18.859375 C 12.078125 -18.023438 11.878906 -17.195312 11.671875 -16.375 C 11.472656 -15.550781 11.300781 -14.867188 11.15625 -14.328125 L 10.078125 -10.21875 Z M 15.390625 -10.21875 "/></g></g></g><g fill="#000000" fill-opacity="1"><g transform="translate(148.282813, 228.068702)"><g><path d="M 2.703125 0 L 2.703125 -24.984375 L 9.453125 -24.984375 L 9.453125 -5.453125 L 19.078125 -5.453125 L 19.078125 0 Z M 2.703125 0 "/></g></g></g><g fill="#000000" fill-opacity="1"><g transform="translate(167.774366, 228.068702)"><g><path d="M 12.734375 -14.625 L 23.515625 -14.625 L 23.515625 -1.15625 C 22.222656 -0.71875 20.742188 -0.359375 19.078125 -0.078125 C 17.421875 0.203125 15.679688 0.34375 13.859375 0.34375 C 11.453125 0.34375 9.34375 -0.125 7.53125 -1.0625 C 5.71875 -2 4.304688 -3.421875 3.296875 -5.328125 C 2.285156 -7.234375 1.78125 -9.644531 1.78125 -12.5625 C 1.78125 -15.175781 2.28125 -17.4375 3.28125 -19.34375 C 4.28125 -21.257812 5.753906 -22.738281 7.703125 -23.78125 C 9.660156 -24.820312 12.0625 -25.34375 14.90625 -25.34375 C 16.46875 -25.34375 17.945312 -25.191406 19.34375 -24.890625 C 20.75 -24.597656 21.96875 -24.222656 23 -23.765625 L 20.859375 -18.46875 C 19.960938 -18.914062 19.03125 -19.25 18.0625 -19.46875 C 17.09375 -19.695312 16.050781 -19.8125 14.9375 -19.8125 C 13.445312 -19.8125 12.25 -19.472656 11.34375 -18.796875 C 10.4375 -18.128906 9.773438 -17.234375 9.359375 -16.109375 C 8.953125 -14.984375 8.75 -13.742188 8.75 -12.390625 C 8.75 -10.835938 8.96875 -9.53125 9.40625 -8.46875 C 9.84375 -7.40625 10.484375 -6.597656 11.328125 -6.046875 C 12.179688 -5.492188 13.210938 -5.21875 14.421875 -5.21875 C 14.816406 -5.21875 15.300781 -5.242188 15.875 -5.296875 C 16.457031 -5.359375 16.894531 -5.425781 17.1875 -5.5 L 17.1875 -9.421875 L 12.734375 -9.421875 Z M 12.734375 -14.625 "/></g></g></g><g fill="#000000" fill-opacity="1"><g transform="translate(192.801792, 228.068702)"><g><path d="M 26.078125 -12.53125 C 26.078125 -10.601562 25.84375 -8.847656 25.375 -7.265625 C 24.914062 -5.691406 24.195312 -4.332031 23.21875 -3.1875 C 22.238281 -2.050781 20.976562 -1.175781 19.4375 -0.5625 C 17.90625 0.0390625 16.066406 0.34375 13.921875 0.34375 C 11.828125 0.34375 10.015625 0.0390625 8.484375 -0.5625 C 6.953125 -1.175781 5.691406 -2.050781 4.703125 -3.1875 C 3.710938 -4.320312 2.976562 -5.679688 2.5 -7.265625 C 2.019531 -8.847656 1.78125 -10.613281 1.78125 -12.5625 C 1.78125 -15.15625 2.207031 -17.410156 3.0625 -19.328125 C 3.925781 -21.253906 5.257812 -22.742188 7.0625 -23.796875 C 8.863281 -24.847656 11.164062 -25.375 13.96875 -25.375 C 16.8125 -25.375 19.125 -24.84375 20.90625 -23.78125 C 22.6875 -22.726562 23.992188 -21.238281 24.828125 -19.3125 C 25.660156 -17.382812 26.078125 -15.125 26.078125 -12.53125 Z M 8.890625 -12.53125 C 8.890625 -11.019531 9.054688 -9.722656 9.390625 -8.640625 C 9.734375 -7.566406 10.273438 -6.738281 11.015625 -6.15625 C 11.765625 -5.570312 12.734375 -5.28125 13.921875 -5.28125 C 15.171875 -5.28125 16.160156 -5.570312 16.890625 -6.15625 C 17.628906 -6.738281 18.160156 -7.566406 18.484375 -8.640625 C 18.804688 -9.722656 18.96875 -11.019531 18.96875 -12.53125 C 18.96875 -14.78125 18.59375 -16.5625 17.84375 -17.875 C 17.09375 -19.1875 15.800781 -19.84375 13.96875 -19.84375 C 12.75 -19.84375 11.765625 -19.546875 11.015625 -18.953125 C 10.265625 -18.359375 9.722656 -17.515625 9.390625 -16.421875 C 9.054688 -15.328125 8.890625 -14.03125 8.890625 -12.53125 Z M 8.890625 -12.53125 "/></g></g></g><g fill="#000000" fill-opacity="1"><g transform="translate(219.811209, 228.068702)"><g><path d="M 10.890625 -24.984375 C 13.148438 -24.984375 15.03125 -24.707031 16.53125 -24.15625 C 18.039062 -23.601562 19.175781 -22.78125 19.9375 -21.6875 C 20.695312 -20.59375 21.078125 -19.234375 21.078125 -17.609375 C 21.078125 -16.585938 20.90625 -15.660156 20.5625 -14.828125 C 20.21875 -14.003906 19.726562 -13.265625 19.09375 -12.609375 C 18.46875 -11.953125 17.710938 -11.378906 16.828125 -10.890625 L 24.109375 0 L 16.453125 0 L 11.15625 -9.09375 L 9.453125 -9.09375 L 9.453125 0 L 2.703125 0 L 2.703125 -24.984375 Z M 10.78125 -19.875 L 9.453125 -19.875 L 9.453125 -14.171875 L 10.71875 -14.171875 C 11.75 -14.171875 12.59375 -14.394531 13.25 -14.84375 C 13.914062 -15.300781 14.25 -16.117188 14.25 -17.296875 C 14.25 -18.109375 13.972656 -18.738281 13.421875 -19.1875 C 12.878906 -19.644531 12 -19.875 10.78125 -19.875 Z M 10.78125 -19.875 "/></g></g></g><g fill="#000000" fill-opacity="1"><g transform="translate(242.617451, 228.068702)"><g><path d="M 2.703125 0 L 2.703125 -24.984375 L 9.484375 -24.984375 L 9.484375 0 Z M 2.703125 0 "/></g></g></g><g fill="#000000" fill-opacity="1"><g transform="translate(253.924785, 228.068702)"><g><path d="M 13.71875 0 L 6.96875 0 L 6.96875 -19.46875 L 0.875 -19.46875 L 0.875 -24.984375 L 19.8125 -24.984375 L 19.8125 -19.46875 L 13.71875 -19.46875 Z M 13.71875 0 "/></g></g></g><g fill="#000000" fill-opacity="1"><g transform="translate(273.723887, 228.068702)"><g><path d="M 13.59375 0 L 8.484375 -18 L 8.328125 -18 C 8.367188 -17.53125 8.414062 -16.894531 8.46875 -16.09375 C 8.519531 -15.300781 8.566406 -14.441406 8.609375 -13.515625 C 8.660156 -12.597656 8.6875 -11.710938 8.6875 -10.859375 L 8.6875 0 L 2.703125 0 L 2.703125 -24.984375 L 11.6875 -24.984375 L 16.90625 -7.25 L 17.03125 -7.25 L 22.15625 -24.984375 L 31.15625 -24.984375 L 31.15625 0 L 24.953125 0 L 24.953125 -10.953125 C 24.953125 -11.742188 24.960938 -12.585938 24.984375 -13.484375 C 25.015625 -14.390625 25.050781 -15.242188 25.09375 -16.046875 C 25.132812 -16.859375 25.171875 -17.5 25.203125 -17.96875 L 25.046875 -17.96875 L 20.015625 0 Z M 13.59375 0 "/></g></g></g><g fill="#000000" fill-opacity="1"><g transform="translate(306.67923, 228.068702)"><g><path d="M 17.53125 0 L 2.703125 0 L 2.703125 -24.984375 L 17.53125 -24.984375 L 17.53125 -19.5625 L 9.453125 -19.5625 L 9.453125 -15.640625 L 16.9375 -15.640625 L 16.9375 -10.21875 L 9.453125 -10.21875 L 9.453125 -5.5 L 17.53125 -5.5 Z M 17.53125 0 "/></g></g></g><g fill="#000000" fill-opacity="1"><g transform="translate(325.008933, 228.068702)"><g><path d="M 19.03125 -7.59375 C 19.03125 -6.226562 18.6875 -4.941406 18 -3.734375 C 17.320312 -2.523438 16.257812 -1.539062 14.8125 -0.78125 C 13.375 -0.03125 11.519531 0.34375 9.25 0.34375 C 8.101562 0.34375 7.097656 0.289062 6.234375 0.1875 C 5.378906 0.0820312 4.582031 -0.0820312 3.84375 -0.3125 C 3.101562 -0.550781 2.332031 -0.859375 1.53125 -1.234375 L 1.53125 -7.25 C 2.894531 -6.5625 4.265625 -6.035156 5.640625 -5.671875 C 7.015625 -5.316406 8.257812 -5.140625 9.375 -5.140625 C 10.050781 -5.140625 10.601562 -5.21875 11.03125 -5.375 C 11.457031 -5.539062 11.769531 -5.757812 11.96875 -6.03125 C 12.175781 -6.3125 12.28125 -6.632812 12.28125 -7 C 12.28125 -7.4375 12.128906 -7.804688 11.828125 -8.109375 C 11.523438 -8.410156 11.046875 -8.722656 10.390625 -9.046875 C 9.734375 -9.378906 8.863281 -9.789062 7.78125 -10.28125 C 6.851562 -10.71875 6.015625 -11.164062 5.265625 -11.625 C 4.523438 -12.082031 3.890625 -12.601562 3.359375 -13.1875 C 2.828125 -13.769531 2.414062 -14.453125 2.125 -15.234375 C 1.84375 -16.023438 1.703125 -16.957031 1.703125 -18.03125 C 1.703125 -19.632812 2.097656 -20.976562 2.890625 -22.0625 C 3.679688 -23.15625 4.785156 -23.972656 6.203125 -24.515625 C 7.628906 -25.066406 9.269531 -25.34375 11.125 -25.34375 C 12.75 -25.34375 14.210938 -25.160156 15.515625 -24.796875 C 16.828125 -24.429688 18 -24.015625 19.03125 -23.546875 L 16.96875 -18.34375 C 15.894531 -18.832031 14.835938 -19.21875 13.796875 -19.5 C 12.765625 -19.789062 11.804688 -19.9375 10.921875 -19.9375 C 10.335938 -19.9375 9.859375 -19.863281 9.484375 -19.71875 C 9.117188 -19.582031 8.847656 -19.394531 8.671875 -19.15625 C 8.492188 -18.914062 8.40625 -18.644531 8.40625 -18.34375 C 8.40625 -17.945312 8.554688 -17.59375 8.859375 -17.28125 C 9.160156 -16.976562 9.664062 -16.644531 10.375 -16.28125 C 11.09375 -15.925781 12.066406 -15.46875 13.296875 -14.90625 C 14.515625 -14.351562 15.550781 -13.757812 16.40625 -13.125 C 17.257812 -12.5 17.910156 -11.742188 18.359375 -10.859375 C 18.804688 -9.972656 19.03125 -8.882812 19.03125 -7.59375 Z M 19.03125 -7.59375 "/></g></g></g></svg>